<?xml version="1.0" standalone="no"?>
<!DOCTYPE svg PUBLIC "-//W3C//DTD SVG 20010904//EN"
 "http://www.w3.org/TR/2001/REC-SVG-20010904/DTD/svg10.dtd">
<svg version="1.0" xmlns="http://www.w3.org/2000/svg"
 width="800.000000pt" height="800.000000pt" viewBox="0 0 800.000000 800.000000"
 preserveAspectRatio="xMidYMid meet">
<metadata>
Created by potrace 1.11, written by Peter Selinger 2001-2013
</metadata>
<g transform="translate(0.000000,800.000000) scale(0.100000,-0.100000)"
fill="#000000" stroke="none">
<path d="M2677 7104 c-1 -1 -38 -5 -82 -8 -140 -11 -290 -39 -420 -77 -38 -12
-71 -21 -72 -20 -2 0 -27 -10 -57 -23 -30 -13 -57 -22 -60 -18 -3 3 -6 0 -6
-6 0 -7 -6 -12 -14 -12 -14 0 -88 -32 -116 -50 -8 -6 -26 -15 -40 -20 -14 -6
-47 -24 -75 -40 -27 -17 -60 -35 -72 -42 -13 -6 -23 -15 -23 -20 0 -4 -4 -8
-10 -8 -9 0 -107 -65 -120 -80 -3 -3 -41 -35 -85 -72 -104 -87 -266 -258 -299
-317 -5 -9 -12 -18 -16 -21 -10 -8 -85 -121 -122 -185 -50 -85 -93 -171 -119
-235 -12 -30 -27 -68 -34 -85 -15 -37 -54 -163 -58 -190 -1 -11 -5 -24 -9 -30
-3 -5 -9 -26 -12 -45 -3 -19 -8 -46 -11 -60 -3 -14 -8 -47 -11 -75 -3 -27 -10
-70 -14 -94 -9 -48 -6 -417 4 -471 4 -19 11 -64 17 -100 5 -36 19 -99 30 -140
12 -41 22 -79 23 -85 4 -18 37 -119 46 -140 5 -11 25 -58 45 -105 20 -47 41
-89 46 -94 5 -6 9 -18 9 -28 0 -10 4 -18 9 -18 5 0 12 -9 16 -19 3 -11 17 -36
30 -55 13 -20 21 -36 18 -36 -4 0 3 -10 14 -22 11 -13 26 -33 33 -46 6 -13 18
-31 25 -40 7 -9 46 -57 86 -107 95 -117 230 -250 334 -328 5 -4 26 -20 46 -35
20 -15 45 -33 55 -39 65 -43 95 -61 144 -87 30 -16 63 -36 74 -45 10 -9 20
-15 22 -14 3 2 56 -19 129 -52 110 -50 339 -113 470 -131 22 -3 56 -8 75 -11
90 -15 439 -7 560 13 122 20 349 81 392 104 10 6 22 10 28 10 10 0 205 94 275
133 52 28 204 130 230 154 11 10 38 31 59 47 132 99 350 355 452 531 88 152
185 378 209 489 1 6 5 18 8 26 4 8 9 26 11 40 3 14 8 36 11 50 9 42 17 84 21
115 2 17 6 44 9 60 2 17 7 70 10 120 3 49 8 91 10 93 2 2 0 15 -6 29 -5 13 -6
22 -1 19 7 -4 7 3 -2 139 -7 92 -13 149 -20 185 -3 14 -8 41 -10 60 -3 19 -17
78 -31 130 -31 113 -30 110 -39 132 -4 9 -9 22 -10 30 -5 24 -78 200 -86 208
-3 3 -17 30 -32 60 -38 76 -81 152 -95 168 -7 7 -13 17 -13 21 0 5 -10 20 -22
34 -13 14 -39 47 -58 74 -55 75 -78 101 -190 212 -134 132 -150 147 -150 139
0 -3 -13 6 -29 21 -33 31 -191 138 -205 139 -5 0 -12 4 -15 9 -3 4 -31 21 -61
37 -30 16 -58 34 -62 40 -4 6 -8 8 -8 3 0 -4 -19 2 -42 14 -117 60 -408 150
-528 164 -19 2 -51 6 -70 9 -61 10 -337 25 -343 20z"/>
<path d="M6861 5268 c-58 -10 -131 -38 -156 -59 -66 -57 -123 -124 -130 -152
-1 -7 -5 -19 -8 -27 -20 -55 -25 -87 -22 -153 2 -59 10 -89 34 -139 93 -194
305 -268 510 -177 17 8 31 17 31 21 0 5 6 8 14 8 19 0 92 84 119 135 73 141
49 306 -62 427 -85 93 -210 137 -330 116z"/>
<path d="M5670 4564 c-252 -47 -455 -202 -565 -429 -57 -119 -78 -206 -78
-330 0 -174 25 -263 117 -429 13 -23 50 -69 87 -108 15 -15 24 -30 21 -33 -3
-3 -1 -5 4 -5 6 0 19 -8 30 -18 40 -37 131 -98 184 -124 47 -22 73 -31 155
-54 72 -20 232 -25 315 -10 244 46 450 199 561 417 18 35 32 69 32 76 0 7 4
13 8 13 4 0 10 17 15 38 4 20 8 39 9 42 35 132 25 315 -27 455 -50 136 -173
295 -289 373 -73 49 -194 102 -269 118 -19 4 -42 9 -50 11 -41 10 -203 8 -260
-3z"/>
<path d="M5710 2753 c-108 -14 -293 -68 -330 -97 -8 -7 -28 -18 -45 -26 -16
-8 -39 -23 -49 -32 -11 -10 -23 -18 -28 -18 -22 0 -170 -149 -212 -215 -11
-17 -26 -36 -33 -43 -7 -7 -13 -19 -13 -27 0 -7 -4 -15 -8 -17 -13 -5 -80
-167 -92 -223 -19 -83 -22 -106 -25 -210 -9 -290 109 -547 341 -745 111 -95
275 -170 434 -198 19 -4 94 -6 165 -6 130 0 246 21 341 60 19 8 36 14 39 14 3
-1 17 8 32 20 14 11 30 20 34 20 13 0 110 69 172 123 87 75 214 256 240 342 3
11 13 39 21 62 30 82 41 158 40 293 0 106 -7 181 -19 200 -3 4 -7 24 -11 44
-8 56 -100 256 -116 256 -5 0 -8 5 -8 11 0 23 -190 228 -212 229 -4 0 -13 6
-21 14 -21 21 -176 103 -227 120 -55 18 -113 33 -160 42 -39 7 -211 12 -250 7z"/>
</g>
</svg>
